# xmcd
#
# Track frame offsets: 
#        150
#        44525
#        74568
#        103940
#        126360
#
# Disc length: 1935 seconds
#
# Revision: 2
# Processed by: cddbd v1.5.2PL0 Copyright (c) Steve Scherf et al.
# Submitted via: ExactAudioCopy v0.95b4
#
DISCID=4d078d05
DTITLE=Hank Mobley - The Jazz Message of Hank Mobley, Vol.2
DYEAR=1956
DGENRE=Jazz
TTITLE0=Thad's Blues <T. Jons>
TTITLE1=Doug's Minor B' OK <D. Watkins>
TTITLE2=B. For B.B. <H. Mobley>
TTITLE3=Blues Number Two <H. Moble>
TTITLE4=Space Flight <H. Moble>
EXTD=YEAR: 1957
EXTT0=
EXTT1=
EXTT2=
EXTT3=
EXTT4=
PLAYORDER=
